<?xml version="1.0" encoding="UTF-8"?>
<svg version="1.1" xmlns="http://www.w3.org/2000/svg" width="305" height="305">
<path d="M0 0 C3.7229703 2.6592645 6.55543557 5.73587115 8.625 9.875 C8.72747316 11.85051185 8.76451301 13.82952526 8.77217102 15.80767822 C8.77932632 17.07229385 8.78648163 18.33690948 8.79385376 19.6398468 C8.79669417 21.04928564 8.79940588 22.45872475 8.80200195 23.86816406 C8.80826561 25.3463914 8.81491232 26.82461716 8.82191467 28.30284119 C8.83933447 32.32571911 8.8498793 36.34858513 8.8581202 40.37149143 C8.86326877 42.88453185 8.86934459 45.39756857 8.87563133 47.91060638 C8.89468699 55.77228214 8.90891678 63.63394848 8.9172433 71.4956429 C8.92701518 80.57239425 8.9533317 89.6489017 8.99374419 98.7255671 C9.02390215 105.739658 9.0387119 112.75367899 9.04202431 119.76783347 C9.04437537 123.95772091 9.05334253 128.14734791 9.07848549 132.33716583 C9.10176551 136.28034513 9.10599993 140.2230925 9.09572411 144.16632271 C9.0952286 145.61189523 9.10155362 147.05748901 9.11528015 148.50299644 C9.1330004 150.48004747 9.12350719 152.45728605 9.11274719 154.43438721 C9.11513555 155.53978474 9.1175239 156.64518227 9.11998463 157.78407669 C8.31777055 162.79348919 5.73887399 165.89373005 2 169.1875 C-3.1318589 172.8338208 -8.23223054 172.43343359 -14.375 171.875 C-19.75675503 170.20808472 -22.69162184 166.72572207 -25.375 161.875 C-26.44383101 158.66850697 -26.50871656 156.35887404 -26.52217102 152.98738098 C-26.52932632 151.75793762 -26.53648163 150.52849426 -26.54385376 149.26179504 C-26.546694 147.89694239 -26.54940573 146.53208947 -26.55200195 145.16723633 C-26.55826772 143.73151485 -26.56491462 142.29579499 -26.57191467 140.8600769 C-26.59294696 136.14240649 -26.6033174 131.42473578 -26.61328125 126.70703125 C-26.61732935 125.08172781 -26.62144628 123.45642454 -26.62563133 121.83112144 C-26.64468247 114.19369819 -26.65891274 106.55628459 -26.6672433 98.91884214 C-26.67701089 90.1098298 -26.7033181 81.30106907 -26.74374419 72.49214536 C-26.77393417 65.67927522 -26.78871497 58.86647708 -26.79202431 52.05354136 C-26.79437185 47.98656245 -26.80329313 43.91985234 -26.82848549 39.85294533 C-26.85182139 36.02383073 -26.85597756 32.19516086 -26.84572411 28.3659935 C-26.84522994 26.96479879 -26.85151516 25.56358179 -26.86528015 24.16245461 C-26.94540638 15.51901932 -26.80443419 8.61025259 -20.62109375 2 C-13.99321367 -2.12274182 -7.3780847 -2.45936157 0 0 Z " fill="#282D32" transform="translate(265.375,106.125)"/>
<path d="M0 0 C4.07166495 2.90833211 7.01178079 6.03534238 8.625 10.875 C8.72263702 12.86549173 8.75999433 14.85912753 8.76544189 16.852005 C8.77115204 18.10116699 8.77686218 19.35032898 8.78274536 20.63734436 C8.78399071 22.02426138 8.7851158 23.4111785 8.78613281 24.7980957 C8.79076147 26.25676601 8.79578619 27.7154351 8.80117798 29.17410278 C8.81429963 33.13907712 8.8207465 37.10403453 8.82518864 41.06902719 C8.82811981 43.54639365 8.83222471 46.02375548 8.83669281 48.50111961 C8.85036727 56.252804 8.86003412 64.00447782 8.8638947 71.75617343 C8.86837514 80.70326006 8.88592255 89.6501939 8.9148953 98.59723407 C8.93651472 105.51368247 8.94659912 112.43008789 8.94793582 119.34656972 C8.94898369 123.4771472 8.95488747 127.60758104 8.97275543 131.73812294 C8.98924062 135.6246313 8.99138954 139.5108881 8.98261642 143.39741898 C8.98184628 144.82202135 8.98618586 146.24663726 8.99607468 147.67120552 C9.00880513 149.61977715 9.00112168 151.56844996 8.99249268 153.51704407 C8.99395924 154.60639409 8.9954258 155.69574411 8.9969368 156.81810474 C8.48565713 161.02023906 6.98679343 164.3819921 4.125 167.51953125 C-1.89144091 172.20420789 -6.93274764 172.59420926 -14.375 171.875 C-19.54955141 170.36495433 -22.61619313 166.98077504 -25.32868576 162.45573425 C-27.52674915 157.03421052 -27.06717358 151.17901687 -27.02197266 145.41601562 C-27.02875711 143.95984304 -27.03766488 142.50367904 -27.04852295 141.04753113 C-27.07122508 137.11142686 -27.06251812 133.17598134 -27.04662752 129.23986626 C-27.03392106 125.11029226 -27.04572176 120.98077263 -27.05355835 116.85119629 C-27.06264116 109.91778493 -27.05070312 102.98464034 -27.02685547 96.05126953 C-26.99964663 88.04853578 -27.00846178 80.04643905 -27.0359875 72.04372072 C-27.05871676 65.15851043 -27.06186008 58.27349131 -27.04879415 51.3882556 C-27.04102052 47.28223455 -27.03990014 43.17651241 -27.05647659 39.07051086 C-27.07097802 35.20914883 -27.06079769 31.34860375 -27.03200531 27.48732948 C-27.02542452 26.07487147 -27.02724053 24.66234406 -27.03831863 23.24991417 C-27.0947845 15.31591934 -26.97373007 8.9197646 -21.375 2.875 C-15.24065177 -2.43034549 -7.49375538 -2.49791846 0 0 Z " fill="#282D32" transform="translate(127.375,106.125)"/>
<path d="M0 0 C3.5541525 2.6837478 6.0682293 5.3239586 8.0625 9.3125 C8.17628665 11.87410934 8.23031659 14.40917058 8.23950195 16.97167969 C8.24935875 18.15735031 8.24935875 18.15735031 8.25941467 19.36697388 C8.27916519 21.98944184 8.29081496 24.61185245 8.30078125 27.234375 C8.30485678 28.12972206 8.3089323 29.02506912 8.31313133 29.94754791 C8.33400088 34.68768586 8.348298 39.42779478 8.35766602 44.16796875 C8.36872432 49.06182426 8.40311489 53.9552243 8.44283772 58.84891891 C8.4689992 62.61335082 8.4773575 66.37767421 8.48094749 70.14218903 C8.48581572 71.94588543 8.49743645 73.74957692 8.51598549 75.55318451 C8.54036438 78.08106909 8.53941435 80.60777575 8.5324707 83.13574219 C8.55168579 84.24881241 8.55168579 84.24881241 8.57128906 85.3843689 C8.52015416 90.50475652 7.26202706 93.35813081 4.0625 97.3125 C-1.18670135 102.04958415 -5.25884023 102.68201221 -12.1484375 102.58203125 C-17.04032648 102.10928568 -19.86823138 100.36032994 -23.31307983 96.95117188 C-28.75648258 89.83972391 -27.65890081 80.81740986 -27.6015625 72.3125 C-27.60493537 70.54947577 -27.60979191 68.78645382 -27.61605835 67.0234375 C-27.6234075 63.33831524 -27.61278788 59.65380123 -27.58935547 55.96875 C-27.56086843 51.26106343 -27.577283 46.55480233 -27.60721779 41.84716797 C-27.6253441 38.20952749 -27.61950845 34.57222123 -27.60657883 30.93457031 C-27.60325952 29.19954252 -27.60727965 27.46448372 -27.61897659 25.72949219 C-27.70486464 9.41140636 -27.70486464 9.41140636 -23.31307983 3.67382812 C-17.05644714 -2.51798266 -8.01634578 -4.22366605 0 0 Z " fill="#282D32" transform="translate(196.9375,175.6875)"/>
<path d="M0 0 C3.96857737 2.99668087 6.4815756 5.5697268 8.0625 10.3125 C8.16868726 12.851084 8.21973332 15.36262124 8.22363281 17.90161133 C8.23108017 19.05824028 8.23108017 19.05824028 8.23867798 20.23823547 C8.25328807 22.79034314 8.26009993 25.34238863 8.265625 27.89453125 C8.27137773 29.66948956 8.27713545 31.44444785 8.28289795 33.21940613 C8.29340488 36.94257903 8.29924945 40.66573037 8.30273438 44.38891602 C8.30821621 49.15374728 8.33223884 53.91829237 8.36070633 58.68303394 C8.37935449 62.35052822 8.38453948 66.01795389 8.38607025 69.68549156 C8.38909276 71.44172415 8.39710774 73.19795564 8.41025543 74.95414162 C8.42736045 77.4147158 8.42542493 79.87459513 8.41894531 82.33520508 C8.43276749 83.41786652 8.43276749 83.41786652 8.4468689 84.5223999 C8.40291619 89.86575375 7.20232479 93.96649418 3.5625 97.95703125 C-2.43729886 102.62874963 -7.50878057 103.06056685 -14.9375 102.3125 C-19.81795893 100.67080998 -23.10365798 97.56326303 -25.9375 93.3125 C-27.1281079 89.74067629 -27.10850993 86.47416021 -27.13037109 82.75512695 C-27.13854858 81.98725357 -27.14672607 81.21938019 -27.15515137 80.42823792 C-27.17997195 77.88576022 -27.19651482 75.34333833 -27.2109375 72.80078125 C-27.21892302 71.4959784 -27.21892302 71.4959784 -27.22706985 70.1648159 C-27.25378984 65.55853533 -27.27316645 60.95228171 -27.28759766 56.34594727 C-27.30092463 52.54068905 -27.32875559 48.73596864 -27.36962891 44.9309082 C-27.41904474 40.33028214 -27.44372985 35.73014304 -27.45082474 31.12926292 C-27.45752209 29.38022738 -27.4727046 27.63120205 -27.49671555 25.8823185 C-27.71041253 9.37233796 -27.71041253 9.37233796 -23.31802368 3.66764832 C-17.03520317 -2.49968785 -8.03205522 -4.23194307 0 0 Z " fill="#282D32" transform="translate(58.9375,175.6875)"/>
<path d="M0 0 C3.7229703 2.6592645 6.55543557 5.73587115 8.625 9.875 C9.11828755 15.72975711 9.48244288 21.06484281 6.9375 26.4375 C2.10698433 31.52912462 -1.48765767 33.99055585 -8.5625 34.25 C-14.37303616 34.18082695 -18.1050954 32.8234059 -22.375 28.875 C-26.48078062 24.39702397 -27.06498622 19.53116563 -26.8203125 13.59375 C-25.9802742 8.4650951 -23.66227453 4.9721634 -19.87109375 1.49609375 C-13.98403931 -2.5751945 -6.55415459 -2.1847182 0 0 Z " fill="#ABA1CA" transform="translate(196.375,106.125)"/>
<path d="M0 0 C4.07166495 2.90833211 7.01178079 6.03534238 8.625 10.875 C9.32266205 18.057488 9.02036204 23.05411514 4.625 28.875 C-0.49614703 33.62142896 -4.72121748 34.29572955 -11.515625 34.21484375 C-16.75476886 33.59215862 -20.23852687 31.20514775 -23.75390625 27.37109375 C-27.20575202 22.37974882 -27.22799722 16.72535464 -26.375 10.875 C-24.6951808 5.99723622 -21.6410711 2.7190474 -17.375 -0.125 C-11.73816637 -2.00394454 -5.61662826 -1.87220942 0 0 Z " fill="#F23B79" transform="translate(58.375,37.125)"/>
<path d="M0 0 C3.82563789 3.53871504 7.28755224 6.79098884 7.73828125 12.140625 C7.98647181 23.5835162 7.98647181 23.5835162 3.5 28.3125 C-1.69725003 33.00270125 -5.80301542 33.73888207 -12.640625 33.6484375 C-17.18083263 33.11502513 -20.2335253 31.47905901 -23.5 28.3125 C-26.94987833 23.81690785 -28.16861771 19.17903973 -27.88671875 13.55078125 C-26.98302825 8.32033019 -24.75435949 4.50567122 -20.9375 0.875 C-14.81937539 -3.04687475 -6.44797104 -3.10884318 0 0 Z " fill="#88D4F3" transform="translate(266.5,37.6875)"/>
<path d="M0 0 C4.07166495 2.90833211 7.01178079 6.03534238 8.625 10.875 C9.32266205 18.057488 9.02036204 23.05411514 4.625 28.875 C-0.49614703 33.62142896 -4.72121748 34.29572955 -11.515625 34.21484375 C-16.75476886 33.59215862 -20.23852687 31.20514775 -23.75390625 27.37109375 C-27.20025315 22.38770014 -27.33114935 16.71254339 -26.375 10.875 C-24.47259637 5.8243709 -21.3449307 1.89876238 -16.46484375 -0.50390625 C-10.9478203 -2.14354499 -5.40752943 -1.80250981 0 0 Z " fill="#CF6EA2" transform="translate(127.375,37.125)"/>
<path d="M0 0 C3.7229703 2.6592645 6.55543557 5.73587115 8.625 9.875 C9.12678565 16.32101568 9.58729274 22.45986659 5.625 27.875 C1.27726929 32.22273071 -2.42023935 34.0247549 -8.5625 34.25 C-14.34402835 34.17352476 -18.19123778 32.92094417 -22.375 28.875 C-26.04515342 24.18593713 -27.09201862 19.22290344 -26.8203125 13.3359375 C-25.92585095 8.3928605 -23.53280667 4.8590612 -19.87109375 1.4921875 C-13.97686393 -2.56986004 -6.55763839 -2.18587946 0 0 Z " fill="#ACA1CA" transform="translate(196.375,37.125)"/>
<path d="M0 0 C4.88006234 2.62528299 8.1174457 6.04374335 9.86328125 11.28125 C10.5609433 18.463738 10.25864329 23.46036514 5.86328125 29.28125 C0.74213422 34.02767896 -3.48293623 34.70197955 -10.27734375 34.62109375 C-15.51648761 33.99840862 -19.00024562 31.61139775 -22.515625 27.77734375 C-25.96747077 22.78599882 -25.98971597 17.13160464 -25.13671875 11.28125 C-23.45689955 6.40348622 -20.40278985 3.1252974 -16.13671875 0.28125 C-11.04065361 -1.41743838 -5.14382507 -1.73028119 0 0 Z " fill="#F23B79" transform="translate(57.13671875,105.71875)"/>
</svg>
